<svg xmlns="http://www.w3.org/2000/svg" height="85.333328" viewBox="0 0 85.333328 85.333328" width="85.333328">
  <g transform="matrix(.13333333 0 0 -.13333333 0 85.333331)">


    <path id="avatarxs"
      d="m439.047 184.57c-38.211 16.606-52.168 42.422-56.426 64.688 27.524 22.144 49.434 57.558 61.481 95.726 12.386 15.793 19.605 32.254 19.605 46.204 0 9.546-3.473 16.453-9.547 21.578-2.031 81.054-59.418 146.132-130.387 147.14l-1.648.094-.645-.039c-70.519-.391-127.828-64.098-131.253-144.086-8.84-5.281-13.934-13.047-13.934-24.687 0-16.411 9.922-36.301 26.629-54.477 11.871-33.273 31.18-63.805 55-84.383-3.539-22.922-16.992-50.387-56.969-67.758-21.586-9.379-61.051-17.808-78.082-26.492 43.625-47.691 126.246-77.6913 195.891-78.0467l.988-.0235.25-.0078c70.141 0 153.246 30.102 197.129 78.078-17.031 8.684-56.496 17.113-78.082 26.492"
      fill="#000000" />
  </g>
</svg>